<?xml version="1.0" encoding="UTF-8" standalone="no"?>
<!-- 2022-04-25 07:57:41 Generated by QCAD 3.26.2 SVG Exporter -->

<svg
   width="240.0135mm"
   height="125.8092mm"
   viewBox="-9.2956 -48.1258 240.0135 125.8092"
   version="1.1"
   style="stroke-linecap:round;stroke-linejoin:round;fill:none"
   id="svg168"
   sodipodi:docname="artwork.svg"
   inkscape:version="1.1.2 (b8e25be833, 2022-02-05)"
   xmlns:inkscape="http://www.inkscape.org/namespaces/inkscape"
   xmlns:sodipodi="http://sodipodi.sourceforge.net/DTD/sodipodi-0.dtd"
   xmlns:xlink="http://www.w3.org/1999/xlink"
   xmlns="http://www.w3.org/2000/svg"
   xmlns:svg="http://www.w3.org/2000/svg">
  <defs
     id="defs172" />
  <sodipodi:namedview
     id="namedview170"
     pagecolor="#ffffff"
     bordercolor="#666666"
     borderopacity="1.0"
     inkscape:pageshadow="2"
     inkscape:pageopacity="0.0"
     inkscape:pagecheckerboard="0"
     inkscape:document-units="mm"
     showgrid="false"
     inkscape:zoom="6.7098692"
     inkscape:cx="165.27893"
     inkscape:cy="225.56326"
     inkscape:window-width="2167"
     inkscape:window-height="1318"
     inkscape:window-x="1062"
     inkscape:window-y="119"
     inkscape:window-maximized="0"
     inkscape:current-layer="svg168" />
  <path
     style="stroke:#000000;stroke-width:0.25;stroke-miterlimit:4;stroke-dasharray:none;stroke-opacity:1;fill:none"
     d="M 12.041164,7.6166815 A 69,69 0 0 1 49.157763,40.843182"
     id="path7436" />
  <text
     xml:space="preserve"
     style="font-style:normal;font-variant:normal;font-weight:300;font-stretch:normal;font-size:2.52399px;line-height:1.25;font-family:Ubuntu;-inkscape-font-specification:'Ubuntu Light';fill:#000000;fill-opacity:1;stroke:none;stroke-width:0.0630998"
     id="text4385"
     y="16.929131"
     x="35.894691"><tspan
       sodipodi:role="line"
       style="font-style:normal;font-variant:normal;font-weight:300;font-stretch:normal;font-family:Ubuntu;-inkscape-font-specification:'Ubuntu Light';stroke-width:0.0630998"
       x="35.894691"
       y="16.929131"
       id="tspan14055">Chrysemys v1</tspan></text>
  <text
     xml:space="preserve"
     style="font-style:normal;font-variant:normal;font-weight:300;font-stretch:normal;font-size:2.52399px;line-height:1.25;font-family:Ubuntu;-inkscape-font-specification:'Ubuntu Light';fill:#000000;fill-opacity:1;stroke:none;stroke-width:0.0630998;stroke-linecap:round;stroke-linejoin:round"
     id="text4385-9"
     y="14.13012"
     x="35.413235"><tspan
       sodipodi:role="line"
       style="font-style:normal;font-variant:normal;font-weight:300;font-stretch:normal;font-family:Ubuntu;-inkscape-font-specification:'Ubuntu Light';stroke-width:0.0630998"
       x="35.413235"
       y="14.13012"
       id="tspan14055-7">JLCJLCJLCJLC</tspan></text>
  <g
     aria-label="JLCJLCJLCJLC"
     id="text4385-9-8"
     style="font-weight:300;font-size:2.52399px;line-height:1.25;font-family:Ubuntu;-inkscape-font-specification:'Ubuntu Light';fill:#000000;stroke-width:0.0630998">
    <path
       d="m 32.416164,-1.4294751 q 0,0.1261995 -0.02524,0.2347311 -0.02524,0.1060076 -0.08834,0.1867752 -0.06058,0.0782437 -0.164059,0.12367554 -0.10096,0.0429078 -0.254923,0.0429078 -0.09086,0 -0.166584,-0.0176679 -0.07572,-0.0151439 -0.133771,-0.0378599 -0.05805,-0.0227159 -0.09844,-0.0479558 -0.03786,-0.0252399 -0.05805,-0.0454318 l 0.08077,-0.13881946 q 0.02272,0.020192 0.05553,0.045432 0.03534,0.022716 0.08077,0.042908 0.04543,0.020192 0.100959,0.032812 0.05553,0.01262 0.121152,0.01262 0.194347,0 0.285211,-0.10095958 0.09339,-0.1034836 0.09339,-0.3508346 v -1.1812273 h 0.171631 z"
       id="path3946" />
    <path
       d="m 33.857362,-1.0281607 v 0.14891542 H 32.86291 V -2.6283703 h 0.171631 v 1.6002096 z"
       id="path3948" />
    <path
       d="m 34.771047,-0.84138543 q -0.169107,0 -0.315499,-0.0605758 -0.143867,-0.0605758 -0.252399,-0.17667931 -0.106007,-0.1161035 -0.169107,-0.2852108 -0.06058,-0.1716314 -0.06058,-0.3912185 0,-0.2195871 0.06562,-0.3886944 0.06815,-0.1716313 0.179203,-0.2877349 0.111056,-0.1161035 0.257447,-0.1741553 0.146391,-0.060576 0.305403,-0.060576 0.09844,0 0.179203,0.01262 0.08077,0.01262 0.141344,0.032812 0.06058,0.017668 0.103483,0.03786 0.04291,0.017668 0.06562,0.032812 l -0.05553,0.1489154 q -0.0631,-0.03786 -0.161535,-0.073196 -0.09591,-0.03786 -0.239779,-0.03786 -0.16406,0 -0.287735,0.055528 -0.121152,0.055528 -0.204443,0.1564874 -0.08329,0.1009596 -0.1262,0.239779 -0.04038,0.1388195 -0.04038,0.3079268 0,0.1741553 0.04038,0.3154987 0.04291,0.1388195 0.123676,0.2372551 0.08077,0.098436 0.196871,0.1514394 0.118627,0.0530038 0.270067,0.0530038 0.166583,0 0.277639,-0.0302879 0.113579,-0.032812 0.171631,-0.065624 l 0.04796,0.14639138 q -0.01767,0.0126199 -0.06058,0.0302879 -0.04291,0.0151439 -0.108531,0.0328119 -0.06562,0.0176679 -0.15144,0.0277639 -0.08582,0.01262 -0.191823,0.01262 z"
       id="path3950" />
    <path
       d="m 36.421736,-1.4294751 q 0,0.1261995 -0.02524,0.2347311 -0.02524,0.1060076 -0.08834,0.1867752 -0.06058,0.0782437 -0.16406,0.12367554 -0.100959,0.0429078 -0.254923,0.0429078 -0.09086,0 -0.166583,-0.0176679 -0.07572,-0.0151439 -0.133771,-0.0378599 -0.05805,-0.0227159 -0.09844,-0.0479558 -0.03786,-0.0252399 -0.05805,-0.0454318 L 35.5131,-1.1291203 q 0.02272,0.020192 0.05553,0.045432 0.03534,0.022716 0.08077,0.042908 0.04543,0.020192 0.10096,0.032812 0.05553,0.01262 0.121152,0.01262 0.194347,0 0.28521,-0.10095958 0.09339,-0.1034836 0.09339,-0.3508346 v -1.1812273 h 0.171631 z"
       id="path3952" />
    <path
       d="m 37.862933,-1.0281607 v 0.14891542 H 36.868481 V -2.6283703 h 0.171632 v 1.6002096 z"
       id="path3954" />
    <path
       d="m 38.776618,-0.84138543 q -0.169107,0 -0.315498,-0.0605758 -0.143868,-0.0605758 -0.252399,-0.17667931 -0.106008,-0.1161035 -0.169108,-0.2852108 -0.06058,-0.1716314 -0.06058,-0.3912185 0,-0.2195871 0.06562,-0.3886944 0.06815,-0.1716313 0.179204,-0.2877349 0.111055,-0.1161035 0.257447,-0.1741553 0.146391,-0.060576 0.305402,-0.060576 0.09844,0 0.179204,0.01262 0.08077,0.01262 0.141343,0.032812 0.06058,0.017668 0.103484,0.03786 0.04291,0.017668 0.06562,0.032812 l -0.05553,0.1489154 q -0.0631,-0.03786 -0.161536,-0.073196 -0.09591,-0.03786 -0.239779,-0.03786 -0.164059,0 -0.287735,0.055528 -0.121151,0.055528 -0.204443,0.1564874 -0.08329,0.1009596 -0.126199,0.239779 -0.04038,0.1388195 -0.04038,0.3079268 0,0.1741553 0.04038,0.3154987 0.04291,0.1388195 0.123675,0.2372551 0.08077,0.098436 0.196872,0.1514394 0.118627,0.0530038 0.270066,0.0530038 0.166584,0 0.277639,-0.0302879 0.11358,-0.032812 0.171632,-0.065624 l 0.04796,0.14639138 q -0.01767,0.0126199 -0.06058,0.0302879 -0.04291,0.0151439 -0.108532,0.0328119 -0.06562,0.0176679 -0.151439,0.0277639 -0.08582,0.01262 -0.191824,0.01262 z"
       id="path3956" />
    <path
       d="m 40.427308,-1.4294751 q 0,0.1261995 -0.02524,0.2347311 -0.02524,0.1060076 -0.08834,0.1867752 -0.06058,0.0782437 -0.16406,0.12367554 -0.100959,0.0429078 -0.254923,0.0429078 -0.09086,0 -0.166583,-0.0176679 -0.07572,-0.0151439 -0.133771,-0.0378599 -0.05805,-0.0227159 -0.09844,-0.0479558 -0.03786,-0.0252399 -0.05805,-0.0454318 l 0.08077,-0.13881946 q 0.02272,0.020192 0.05553,0.045432 0.03534,0.022716 0.08077,0.042908 0.04543,0.020192 0.10096,0.032812 0.05553,0.01262 0.121151,0.01262 0.194348,0 0.285211,-0.10095958 0.09339,-0.1034836 0.09339,-0.3508346 v -1.1812273 h 0.171631 z"
       id="path3958" />
    <path
       d="m 41.868505,-1.0281607 v 0.14891542 H 40.874053 V -2.6283703 h 0.171631 v 1.6002096 z"
       id="path3960" />
    <path
       d="m 42.78219,-0.84138543 q -0.169107,0 -0.315498,-0.0605758 -0.143868,-0.0605758 -0.252399,-0.17667931 -0.106008,-0.1161035 -0.169108,-0.2852108 -0.06057,-0.1716314 -0.06057,-0.3912185 0,-0.2195871 0.06562,-0.3886944 0.06815,-0.1716313 0.179204,-0.2877349 0.111055,-0.1161035 0.257447,-0.1741553 0.146391,-0.060576 0.305402,-0.060576 0.09844,0 0.179204,0.01262 0.08077,0.01262 0.141343,0.032812 0.06058,0.017668 0.103484,0.03786 0.04291,0.017668 0.06562,0.032812 l -0.05553,0.1489154 q -0.0631,-0.03786 -0.161536,-0.073196 -0.09591,-0.03786 -0.239779,-0.03786 -0.164059,0 -0.287735,0.055528 -0.121151,0.055528 -0.204443,0.1564874 -0.08329,0.1009596 -0.126199,0.239779 -0.04038,0.1388195 -0.04038,0.3079268 0,0.1741553 0.04038,0.3154987 0.04291,0.1388195 0.123675,0.2372551 0.08077,0.098436 0.196871,0.1514394 0.118628,0.0530038 0.270067,0.0530038 0.166584,0 0.277639,-0.0302879 0.11358,-0.032812 0.171631,-0.065624 l 0.04796,0.14639138 q -0.01767,0.0126199 -0.06058,0.0302879 -0.04291,0.0151439 -0.108532,0.0328119 -0.06562,0.0176679 -0.151439,0.0277639 -0.08582,0.01262 -0.191824,0.01262 z"
       id="path3962" />
    <path
       d="m 44.43288,-1.4294751 q 0,0.1261995 -0.02524,0.2347311 -0.02524,0.1060076 -0.08834,0.1867752 -0.06058,0.0782437 -0.164059,0.12367554 -0.10096,0.0429078 -0.254923,0.0429078 -0.09086,0 -0.166584,-0.0176679 -0.07572,-0.0151439 -0.133771,-0.0378599 -0.05805,-0.0227159 -0.09844,-0.0479558 -0.03786,-0.0252399 -0.05805,-0.0454318 l 0.08077,-0.13881946 q 0.02272,0.020192 0.05553,0.045432 0.03534,0.022716 0.08077,0.042908 0.04543,0.020192 0.100959,0.032812 0.05553,0.01262 0.121152,0.01262 0.194347,0 0.285211,-0.10095958 0.09339,-0.1034836 0.09339,-0.3508346 v -1.1812273 h 0.171632 z"
       id="path3964" />
    <path
       d="m 45.874077,-1.0281607 v 0.14891542 H 44.879625 V -2.6283703 h 0.171631 v 1.6002096 z"
       id="path3966" />
    <path
       d="m 46.787762,-0.84138543 q -0.169108,0 -0.315499,-0.0605758 -0.143867,-0.0605758 -0.252399,-0.17667931 -0.106008,-0.1161035 -0.169107,-0.2852108 -0.06058,-0.1716314 -0.06058,-0.3912185 0,-0.2195871 0.06562,-0.3886944 0.06815,-0.1716313 0.179203,-0.2877349 0.111055,-0.1161035 0.257447,-0.1741553 0.146391,-0.060576 0.305403,-0.060576 0.09844,0 0.179203,0.01262 0.08077,0.01262 0.141343,0.032812 0.06058,0.017668 0.103484,0.03786 0.04291,0.017668 0.06562,0.032812 l -0.05553,0.1489154 q -0.0631,-0.03786 -0.161535,-0.073196 -0.09591,-0.03786 -0.239779,-0.03786 -0.16406,0 -0.287735,0.055528 -0.121152,0.055528 -0.204444,0.1564874 -0.08329,0.1009596 -0.126199,0.239779 -0.04038,0.1388195 -0.04038,0.3079268 0,0.1741553 0.04038,0.3154987 0.04291,0.1388195 0.123675,0.2372551 0.08077,0.098436 0.196872,0.1514394 0.118627,0.0530038 0.270067,0.0530038 0.166583,0 0.277639,-0.0302879 0.113579,-0.032812 0.171631,-0.065624 l 0.04796,0.14639138 q -0.01767,0.0126199 -0.06058,0.0302879 -0.04291,0.0151439 -0.108532,0.0328119 -0.06562,0.0176679 -0.151439,0.0277639 -0.08582,0.01262 -0.191823,0.01262 z"
       id="path3968" />
  </g>
  <g
     aria-label="Chrysemys v1"
     id="text4385-7"
     style="font-weight:300;font-size:2.52399px;line-height:1.25;font-family:Ubuntu;-inkscape-font-specification:'Ubuntu Light';fill:#000000;stroke-width:0.0630998">
    <path
       d="m 24.103963,-4.8776599 q -0.169107,0 -0.315499,-0.060576 -0.143867,-0.060576 -0.252399,-0.1766793 -0.106007,-0.1161036 -0.169107,-0.2852109 -0.06058,-0.1716313 -0.06058,-0.3912184 0,-0.2195871 0.06562,-0.3886945 0.06815,-0.1716313 0.179203,-0.2877348 0.111056,-0.1161035 0.257447,-0.1741553 0.146391,-0.060576 0.305403,-0.060576 0.09843,0 0.179203,0.01262 0.08077,0.01262 0.141344,0.032812 0.06058,0.017668 0.103483,0.03786 0.04291,0.017668 0.06562,0.032812 l -0.05553,0.1489154 q -0.0631,-0.03786 -0.161535,-0.073196 -0.09591,-0.03786 -0.239779,-0.03786 -0.16406,0 -0.287735,0.055528 -0.121152,0.055528 -0.204443,0.1564874 -0.08329,0.1009596 -0.1262,0.239779 -0.04038,0.1388195 -0.04038,0.3079268 0,0.1741553 0.04038,0.3154987 0.04291,0.1388195 0.123676,0.2372551 0.08077,0.098436 0.196871,0.1514394 0.118627,0.053004 0.270067,0.053004 0.166583,0 0.277639,-0.030288 0.113579,-0.032812 0.171631,-0.065624 l 0.04796,0.1463914 q -0.01767,0.01262 -0.06058,0.030288 -0.04291,0.015144 -0.108531,0.032812 -0.06562,0.017668 -0.15144,0.027764 -0.08582,0.01262 -0.191823,0.01262 z"
       id="path25922" />
    <path
       d="M 24.904066,-4.9155197 V -6.843848 l 0.164059,-0.030288 v 0.6915732 q 0.08077,-0.030288 0.164059,-0.045432 0.08329,-0.017668 0.166584,-0.017668 0.151439,0 0.252399,0.042908 0.100959,0.042908 0.161535,0.1236755 0.06058,0.078244 0.08329,0.1892993 0.02524,0.1110555 0.02524,0.244827 v 0.7294331 h -0.16406 V -5.591949 q 0,-0.1388195 -0.02019,-0.2347311 -0.01767,-0.095912 -0.0631,-0.1564873 -0.04291,-0.060576 -0.116104,-0.085816 -0.0732,-0.027764 -0.184251,-0.027764 -0.04291,0 -0.09339,0.00757 -0.04796,0.00757 -0.09086,0.017668 -0.04291,0.00757 -0.07824,0.017668 -0.03281,0.010096 -0.04291,0.015144 v 1.1231755 z"
       id="path25924" />
    <path
       d="m 26.784439,-6.2456624 q 0.08077,0 0.151439,0.01262 0.0732,0.01262 0.10096,0.02524 l -0.03281,0.1413435 q -0.02019,-0.010096 -0.08329,-0.020192 -0.06058,-0.01262 -0.161535,-0.01262 -0.106007,0 -0.171631,0.015144 -0.0631,0.015144 -0.08329,0.02524 v 1.1433674 h -0.164059 v -1.244327 q 0.0631,-0.027764 0.174155,-0.055528 0.111056,-0.030288 0.270067,-0.030288 z"
       id="path25926" />
    <path
       d="m 27.693076,-4.8877558 q -0.08329,-0.1539634 -0.161535,-0.3205467 -0.07572,-0.1665834 -0.143867,-0.3356907 -0.06562,-0.1716313 -0.121152,-0.3407386 -0.05553,-0.1716314 -0.09591,-0.3356907 h 0.174155 q 0.02776,0.1211515 0.07067,0.262495 0.04291,0.1388194 0.09591,0.2877348 0.05553,0.1489154 0.121152,0.3054028 0.06562,0.1564874 0.141343,0.3079268 0.05553,-0.1564874 0.09844,-0.2953069 0.04291,-0.1388194 0.07824,-0.2751149 0.03786,-0.1388194 0.07067,-0.2826868 0.03534,-0.1438675 0.0732,-0.3104508 h 0.164059 q -0.08077,0.3659785 -0.184251,0.7117652 -0.103484,0.3457866 -0.224635,0.6335214 -0.04796,0.1135796 -0.09844,0.1943472 -0.05048,0.083292 -0.113579,0.1362955 -0.06058,0.053004 -0.143868,0.078244 -0.08077,0.02524 -0.191823,0.02524 -0.0631,0 -0.116103,-0.015144 -0.05048,-0.015144 -0.0631,-0.022716 l 0.03281,-0.1362954 q 0.0101,0.00757 0.05553,0.020192 0.04796,0.015144 0.09844,0.015144 0.07067,0 0.1262,-0.015144 0.05805,-0.015144 0.103483,-0.053004 0.04543,-0.035336 0.08077,-0.093388 0.03786,-0.058052 0.0732,-0.1463914 z"
       id="path25928" />
    <path
       d="m 28.801111,-5.0316233 q 0.141343,0 0.232207,-0.045432 0.09339,-0.047956 0.09339,-0.1590113 0,-0.053004 -0.01767,-0.090864 -0.01514,-0.03786 -0.053,-0.068148 -0.03786,-0.030288 -0.10096,-0.058052 -0.06058,-0.027764 -0.151439,-0.065624 -0.0732,-0.030288 -0.13882,-0.060576 -0.06562,-0.032812 -0.116103,-0.073196 -0.05048,-0.042908 -0.08077,-0.1009596 -0.03029,-0.058052 -0.03029,-0.1413434 0,-0.1590114 0.118628,-0.257447 0.121151,-0.098436 0.330642,-0.098436 0.133772,0 0.219587,0.022716 0.08834,0.022716 0.123676,0.040384 l -0.03786,0.1463914 q -0.03029,-0.015144 -0.103484,-0.040384 -0.07067,-0.02524 -0.209491,-0.02524 -0.05553,0 -0.106007,0.01262 -0.04796,0.010096 -0.08582,0.035336 -0.03786,0.022716 -0.06058,0.060576 -0.02272,0.035336 -0.02272,0.08834 0,0.053004 0.02019,0.090864 0.02019,0.03786 0.05805,0.068148 0.04038,0.027764 0.09591,0.053004 0.05805,0.02524 0.131247,0.055528 0.07572,0.030288 0.143868,0.0631 0.07067,0.030288 0.123675,0.07572 0.053,0.042908 0.08582,0.1060076 0.03281,0.060576 0.03281,0.1539634 0,0.1766793 -0.133772,0.2675429 -0.131247,0.090864 -0.36093,0.090864 -0.171632,0 -0.262495,-0.030288 -0.09086,-0.027764 -0.121152,-0.042908 l 0.04291,-0.1489154 q 0.0076,0.00505 0.03281,0.017668 0.02524,0.010096 0.06815,0.02524 0.04291,0.01262 0.100959,0.022716 0.06058,0.010096 0.13882,0.010096 z"
       id="path25930" />
    <path
       d="m 29.53559,-5.5692331 q 0,-0.1716313 0.04796,-0.2978308 0.05048,-0.1287235 0.128723,-0.2145392 0.08077,-0.085816 0.181727,-0.1261995 0.103484,-0.042908 0.212016,-0.042908 0.239779,0 0.381122,0.1564874 0.143868,0.1564874 0.143868,0.4820821 0,0.020192 -0.0025,0.040384 0,0.020192 -0.0025,0.03786 h -0.916209 q 0.0076,0.239779 0.118628,0.3685025 0.111055,0.1287235 0.353358,0.1287235 0.133772,0 0.212015,-0.02524 0.07824,-0.02524 0.11358,-0.042908 l 0.03029,0.1413435 q -0.03534,0.020192 -0.133772,0.047956 -0.09591,0.027764 -0.227159,0.027764 -0.171631,0 -0.292782,-0.05048 -0.121152,-0.05048 -0.199396,-0.1413435 -0.07824,-0.090864 -0.113579,-0.2145391 -0.03534,-0.1261995 -0.03534,-0.2751149 z m 0.926304,-0.1034836 q -0.005,-0.2044432 -0.09591,-0.3180227 -0.09086,-0.1135796 -0.257447,-0.1135796 -0.08834,0 -0.159012,0.035336 -0.06815,0.035336 -0.121151,0.095912 -0.05048,0.058052 -0.08077,0.1362955 -0.02776,0.078244 -0.03281,0.1640593 z"
       id="path25932" />
    <path
       d="m 30.996981,-6.1749907 q 0.0732,-0.020192 0.1893,-0.045432 0.118627,-0.02524 0.305402,-0.02524 0.247351,0 0.358407,0.1438674 0.01262,-0.010096 0.04796,-0.032812 0.03786,-0.02524 0.09339,-0.05048 0.05553,-0.02524 0.128724,-0.042908 0.07572,-0.017668 0.166583,-0.017668 0.148916,0 0.239779,0.045432 0.09339,0.042908 0.143868,0.1236755 0.05048,0.078244 0.06815,0.1892993 0.01767,0.1110555 0.01767,0.242303 v 0.7294331 H 32.592143 V -5.591949 q 0,-0.1287235 -0.01262,-0.2221111 -0.0101,-0.095912 -0.04543,-0.1564874 -0.03281,-0.0631 -0.09591,-0.093388 -0.0631,-0.032812 -0.16406,-0.032812 -0.07572,0 -0.138819,0.015144 -0.06058,0.01262 -0.106008,0.032812 -0.04543,0.020192 -0.07572,0.040384 -0.02776,0.020192 -0.04038,0.030288 0.02272,0.065624 0.03281,0.1489154 0.01262,0.080768 0.01262,0.1716314 v 0.742053 H 31.794562 V -5.591949 q 0,-0.1287235 -0.01262,-0.2221111 -0.0101,-0.095912 -0.04543,-0.1564874 -0.03533,-0.0631 -0.100959,-0.093388 -0.0631,-0.032812 -0.169108,-0.032812 -0.118627,0 -0.201919,0.01262 -0.08077,0.01262 -0.103483,0.022716 v 1.1458914 h -0.16406 z"
       id="path25934" />
    <path
       d="m 33.531069,-4.8877558 q -0.08329,-0.1539634 -0.161535,-0.3205467 -0.07572,-0.1665834 -0.143868,-0.3356907 -0.06562,-0.1716313 -0.121151,-0.3407386 -0.05553,-0.1716314 -0.09591,-0.3356907 h 0.174155 q 0.02776,0.1211515 0.07067,0.262495 0.04291,0.1388194 0.09591,0.2877348 0.05553,0.1489154 0.121151,0.3054028 0.06562,0.1564874 0.141344,0.3079268 0.05553,-0.1564874 0.09844,-0.2953069 0.04291,-0.1388194 0.07824,-0.2751149 0.03786,-0.1388194 0.07067,-0.2826868 0.03533,-0.1438675 0.07319,-0.3104508 h 0.16406 q -0.08077,0.3659785 -0.184252,0.7117652 -0.103483,0.3457866 -0.224635,0.6335214 -0.04796,0.1135796 -0.09844,0.1943472 -0.05048,0.083292 -0.11358,0.1362955 -0.06058,0.053004 -0.143867,0.078244 -0.08077,0.02524 -0.191824,0.02524 -0.0631,0 -0.116103,-0.015144 -0.05048,-0.015144 -0.0631,-0.022716 l 0.03281,-0.1362954 q 0.0101,0.00757 0.05553,0.020192 0.04796,0.015144 0.09844,0.015144 0.07067,0 0.1262,-0.015144 0.05805,-0.015144 0.103484,-0.053004 0.04543,-0.035336 0.08077,-0.093388 0.03786,-0.058052 0.0732,-0.1463914 z"
       id="path25936" />
    <path
       d="m 34.639103,-5.0316233 q 0.141344,0 0.232207,-0.045432 0.09339,-0.047956 0.09339,-0.1590113 0,-0.053004 -0.01767,-0.090864 -0.01514,-0.03786 -0.053,-0.068148 -0.03786,-0.030288 -0.100959,-0.058052 -0.06058,-0.027764 -0.15144,-0.065624 -0.0732,-0.030288 -0.138819,-0.060576 -0.06562,-0.032812 -0.116104,-0.073196 -0.05048,-0.042908 -0.08077,-0.1009596 -0.03029,-0.058052 -0.03029,-0.1413434 0,-0.1590114 0.118627,-0.257447 0.121152,-0.098436 0.330643,-0.098436 0.133771,0 0.219587,0.022716 0.08834,0.022716 0.123675,0.040384 l -0.03786,0.1463914 q -0.03029,-0.015144 -0.103484,-0.040384 -0.07067,-0.02524 -0.209491,-0.02524 -0.05553,0 -0.106008,0.01262 -0.04796,0.010096 -0.08582,0.035336 -0.03786,0.022716 -0.06058,0.060576 -0.02272,0.035336 -0.02272,0.08834 0,0.053004 0.02019,0.090864 0.02019,0.03786 0.05805,0.068148 0.04038,0.027764 0.09591,0.053004 0.05805,0.02524 0.131248,0.055528 0.07572,0.030288 0.143867,0.0631 0.07067,0.030288 0.123676,0.07572 0.053,0.042908 0.08582,0.1060076 0.03281,0.060576 0.03281,0.1539634 0,0.1766793 -0.133771,0.2675429 -0.131248,0.090864 -0.360931,0.090864 -0.171631,0 -0.262495,-0.030288 -0.09086,-0.027764 -0.121151,-0.042908 l 0.04291,-0.1489154 q 0.0076,0.00505 0.03281,0.017668 0.02524,0.010096 0.06815,0.02524 0.04291,0.01262 0.10096,0.022716 0.06058,0.010096 0.138819,0.010096 z"
       id="path25938" />
    <path
       d="m 36.421041,-5.092199 q 0.053,-0.1085316 0.108531,-0.247351 0.05553,-0.1413435 0.106008,-0.2902589 0.053,-0.1514394 0.09591,-0.3028788 0.04543,-0.1539633 0.07572,-0.2877348 h 0.164059 q -0.04543,0.1792033 -0.100959,0.3533586 -0.05553,0.1741553 -0.118628,0.3407386 -0.06058,0.1665834 -0.128723,0.3205467 -0.06562,0.1539634 -0.128724,0.2902589 h -0.156487 q -0.06562,-0.1362955 -0.131248,-0.2902589 -0.06562,-0.1539633 -0.128723,-0.3205467 -0.06058,-0.1665833 -0.116104,-0.3407386 -0.05553,-0.1741553 -0.100959,-0.3533586 h 0.174155 q 0.03029,0.1337715 0.0732,0.2877348 0.04543,0.1514394 0.09591,0.3028788 0.053,0.1489154 0.108532,0.2902589 0.05553,0.1388194 0.108532,0.247351 z"
       id="path25940" />
    <path
       d="m 37.291815,-6.3062382 q 0.15144,-0.053004 0.270067,-0.1337714 0.118628,-0.083292 0.234731,-0.2246351 h 0.116104 v 1.749125 h -0.164059 v -1.49925 q -0.02776,0.030288 -0.0732,0.0631 -0.04291,0.032812 -0.09844,0.065624 -0.05553,0.030288 -0.116103,0.060576 -0.06058,0.027764 -0.121152,0.045432 z"
       id="path25942" />
  </g>
  <text
     xml:space="preserve"
     style="font-style:normal;font-variant:normal;font-weight:300;font-stretch:normal;font-size:2.52399px;line-height:1.25;font-family:Ubuntu;-inkscape-font-specification:'Ubuntu Light';fill:#000000;fill-opacity:1;stroke:none;stroke-width:0.0630998;stroke-linecap:round;stroke-linejoin:round"
     id="text4385-0"
     transform="rotate(8.8824798,-2.829623,71.5683)"><textPath
       xlink:href="#path7436"
       id="textPath13520"><tspan
         id="tspan4383-7"
         style="font-style:normal;font-variant:normal;font-weight:300;font-stretch:normal;font-family:Ubuntu;-inkscape-font-specification:'Ubuntu Light';stroke-width:0.0630998">https://grosinger.net</tspan></textPath></text>
  <g
     aria-label="https://grosinger.net"
     transform="rotate(8.8824798,105.45368,8.1622036)"
     id="text4385-0-6"
     style="font-weight:300;font-size:2.52399px;line-height:1.25;font-family:Ubuntu;-inkscape-font-specification:'Ubuntu Light';fill:#000000;stroke-width:0.0630998">
    <path
       d="m 12.244828,7.6919557 0.699515,-1.7969776 0.163871,0.031289 -0.250873,0.6444658 q 0.08625,0.00107 0.169365,0.017176 0.08403,0.01375 0.161645,0.043965 0.141124,0.054936 0.219642,0.1315447 0.07852,0.076609 0.105668,0.1738493 0.02807,0.094888 0.0089,0.2066195 -0.01676,0.1126468 -0.06529,0.2373063 L 13.19271,8.0609408 13.039826,8.0014271 13.285205,7.3710737 q 0.05036,-0.1293636 0.06633,-0.2260668 0.01833,-0.095788 -0.002,-0.1687179 -0.01801,-0.072015 -0.07706,-0.1220876 -0.05814,-0.052425 -0.161629,-0.092711 -0.03999,-0.015565 -0.08977,-0.026821 -0.04744,-0.01034 -0.09108,-0.016497 -0.04273,-0.00851 -0.07932,-0.011919 -0.03424,-0.00249 -0.04548,-0.00145 l -0.40744,1.0466689 z"
       id="path25834" />
    <path
       d="m 14.218104,7.0691383 0.481156,0.1970496 -0.05261,0.128464 -0.481155,-0.1970497 -0.263052,0.6423199 q -0.04209,0.1027711 -0.05252,0.1748668 -0.0071,0.070717 0.01121,0.1191439 0.01835,0.048427 0.06028,0.079237 0.04193,0.03081 0.09799,0.053767 0.09576,0.039219 0.162766,0.042111 0.06796,5.567e-4 0.10831,-0.00474 l -0.01428,0.141433 q -0.04131,0.00763 -0.134537,0.00218 -0.09227,-0.00779 -0.188036,-0.047005 -0.112114,-0.045915 -0.177714,-0.1055092 -0.06231,-0.060974 -0.08511,-0.1384976 -0.01951,-0.078903 -0.0018,-0.1753123 0.01766,-0.096409 0.0674,-0.2178661 l 0.455319,-1.1117973 0.163299,0.034147 z"
       id="path25836" />
    <path
       d="m 15.137051,7.4512933 0.478319,0.2038385 -0.05442,0.1277067 -0.478319,-0.2038386 -0.272115,0.6385332 q -0.04354,0.1021653 -0.05499,0.1741061 -0.0081,0.070608 0.0095,0.1192906 0.01766,0.048682 0.05916,0.080082 0.04149,0.0314 0.09722,0.055148 0.0952,0.04057 0.162153,0.04441 0.06794,0.00152 0.108367,-0.0032 l -0.01628,0.1412169 q -0.04141,0.00704 -0.134555,2.748e-4 -0.09215,-0.00909 -0.187352,-0.049661 -0.111453,-0.047496 -0.176203,-0.1080134 -0.06144,-0.061849 -0.08314,-0.1396881 -0.01839,-0.079171 6.36e-4,-0.1753208 0.01903,-0.09615 0.07048,-0.2168905 l 0.471006,-1.1052429 0.1628,0.036455 z"
       id="path25838" />
    <path
       d="m 15.627354,8.8285388 q 0.01352,0.025403 0.03523,0.057232 0.02401,0.03286 0.05827,0.067538 0.03426,0.034678 0.07749,0.067839 0.04426,0.030857 0.09726,0.05456 0.110593,0.049466 0.20081,0.045579 0.09355,-0.00516 0.168487,-0.049062 0.07597,-0.046206 0.135863,-0.1244838 0.06093,-0.080582 0.10524,-0.1796549 0.105116,-0.2350102 0.04326,-0.4119848 -0.06083,-0.1792787 -0.254364,-0.265844 -0.110593,-0.049466 -0.184866,-0.068862 -0.07094,-0.02067 -0.110652,-0.024608 z m -0.28649,0.6405179 -0.149762,-0.066985 0.704889,-1.5759505 q 0.07712,0.00685 0.190078,0.032483 0.112956,0.025638 0.271933,0.096745 0.131329,0.058741 0.217734,0.1499219 0.08974,0.089908 0.129703,0.2045563 0.04227,0.1156791 0.03221,0.2494298 -0.0078,0.1347814 -0.07267,0.2799347 -0.0608,0.1359372 -0.149193,0.2346497 -0.08506,0.097439 -0.191277,0.1494675 -0.105189,0.049725 -0.227177,0.050461 -0.119684,0.00177 -0.248709,-0.055943 -0.117505,-0.052558 -0.19063,-0.1239743 -0.06979,-0.07269 -0.09556,-0.1201617 z"
       id="path25840" />
    <path
       d="m 17.014153,9.5905981 q 0.127936,0.060086 0.229494,0.057591 0.104916,-0.00371 0.152127,-0.1042281 0.02253,-0.047976 0.02263,-0.089755 0.0024,-0.040706 -0.019,-0.084216 -0.02139,-0.043509 -0.0667,-0.095464 -0.04303,-0.050881 -0.109177,-0.1237769 -0.05338,-0.058531 -0.0999,-0.113843 -0.04545,-0.057597 -0.07397,-0.1156091 -0.02745,-0.060297 -0.03019,-0.1257178 -0.0027,-0.065421 0.03267,-0.1408116 0.0676,-0.143928 0.216818,-0.1825967 0.151505,-0.037596 0.341125,0.051461 0.121082,0.056867 0.189101,0.1139094 0.0703,0.058115 0.09478,0.089129 l -0.0965,0.1164106 q -0.02098,-0.026583 -0.0765,-0.080545 -0.05324,-0.052889 -0.178889,-0.1119021 -0.05026,-0.023605 -0.101317,-0.033642 -0.0477,-0.011248 -0.0927,-0.0045 -0.04393,0.00447 -0.08058,0.029078 -0.03558,0.022327 -0.05812,0.070303 -0.02253,0.047976 -0.02035,0.090828 0.0022,0.042852 0.02358,0.086362 0.02475,0.042298 0.06428,0.088749 0.04181,0.047524 0.09519,0.1060549 0.05566,0.059604 0.103397,0.1182735 0.05109,0.057458 0.07975,0.1211125 0.02974,0.06137 0.03261,0.1324329 0.0039,0.068778 -0.03575,0.1533075 -0.07511,0.1599199 -0.234817,0.1852971 -0.157425,0.02645 -0.365321,-0.07119 -0.155351,-0.072962 -0.224719,-0.1390036 -0.07044,-0.063757 -0.09142,-0.09034 l 0.102142,-0.1165492 q 0.0047,0.00779 0.02219,0.029941 0.01855,0.019868 0.05095,0.051816 0.03347,0.029663 0.08173,0.06348 0.05054,0.03489 0.121359,0.068152 z"
       id="path25842" />
    <path
       d="m 17.954961,10.048514 q -0.02533,0.05224 -0.07701,0.07206 -0.04941,0.02092 -0.108464,-0.0077 -0.05905,-0.02863 -0.0755,-0.08148 -0.01418,-0.051754 0.01114,-0.1039907 0.02532,-0.052237 0.07474,-0.073161 0.05168,-0.019823 0.110734,0.0088 0.05905,0.028627 0.07323,0.080381 0.01645,0.052855 -0.0089,0.1050909 z m 0.461342,-0.9516187 q -0.02532,0.052237 -0.07701,0.07206 -0.04941,0.020924 -0.108463,-0.0077 -0.05905,-0.028628 -0.0755,-0.081482 -0.01418,-0.051754 0.01114,-0.1039903 0.02532,-0.052237 0.07474,-0.073161 0.05168,-0.019823 0.110735,0.0088 0.05905,0.028627 0.07323,0.080381 0.01645,0.052855 -0.0089,0.1050913 z"
       id="path25844" />
    <path
       d="m 17.951215,10.686655 -0.149084,-0.07432 1.860356,-1.8025491 0.144565,0.072072 z"
       id="path25846" />
    <path
       d="m 18.756012,11.089428 -0.148095,-0.07628 1.883875,-1.777955 0.143606,0.073965 z"
       id="path25848" />
    <path
       d="m 20.692308,11.409056 q -0.01931,0.004 -0.05436,0.0052 -0.03385,-9.82e-4 -0.08223,-0.0069 -0.04616,-0.0047 -0.103278,-0.02107 -0.0537,-0.01737 -0.115966,-0.0508 -0.100072,-0.05372 -0.176759,-0.134993 -0.07669,-0.08127 -0.112036,-0.186189 -0.03312,-0.103723 -0.01927,-0.230924 0.01505,-0.129426 0.09623,-0.280646 0.06566,-0.12231 0.159572,-0.206535 0.09391,-0.08423 0.203441,-0.122827 0.112945,-0.03963 0.235699,-0.02816 0.126172,0.01044 0.25293,0.07848 0.160115,0.08595 0.243801,0.159525 0.0871,0.07254 0.138627,0.125982 l -0.563472,1.049643 q -0.13848,0.257963 -0.330406,0.295302 -0.193119,0.03956 -0.462201,-0.104886 -0.111191,-0.05969 -0.192817,-0.126426 -0.0806,-0.06332 -0.133149,-0.120177 l 0.09934,-0.115686 q 0.04024,0.05311 0.121867,0.119849 0.08385,0.06793 0.17725,0.11807 0.204592,0.109829 0.338745,0.07872 0.135183,-0.02769 0.23785,-0.218942 z m 0.468132,-0.877379 q -0.03184,-0.03141 -0.0871,-0.07254 -0.05407,-0.04335 -0.165265,-0.103041 -0.0934,-0.05014 -0.184694,-0.05618 -0.08788,-0.0071 -0.171255,0.02552 -0.08219,0.03036 -0.153043,0.09832 -0.06966,0.06573 -0.12219,0.16358 -0.06088,0.113415 -0.07392,0.212409 -0.01184,0.09677 0.0096,0.174183 0.02369,0.0786 0.07505,0.137687 0.05255,0.05686 0.119267,0.09267 0.09785,0.05253 0.193425,0.06659 0.0978,0.01526 0.162571,0.0013 z"
       id="path25850" />
    <path
       d="m 22.179687,10.885411 q 0.07049,0.03943 0.126007,0.08494 0.05772,0.04675 0.07579,0.07131 l -0.09764,0.107339 q -0.01269,-0.01867 -0.06283,-0.05828 -0.04671,-0.04059 -0.134819,-0.08987 -0.09252,-0.05175 -0.157183,-0.07057 -0.06246,-0.01759 -0.08501,-0.01863 l -0.558163,0.997869 -0.143182,-0.08009 0.607449,-1.085982 q 0.06862,0.0066 0.179101,0.03656 0.111709,0.02778 0.250485,0.105406 z"
       id="path25852" />
    <path
       d="m 23.255377,12.289196 q -0.0775,0.133036 -0.18028,0.219213 -0.1006,0.08745 -0.214857,0.123124 -0.112075,0.03695 -0.231264,0.02593 -0.117919,-0.01319 -0.231326,-0.07926 -0.113408,-0.06607 -0.183048,-0.162134 -0.06837,-0.09825 -0.09369,-0.215237 -0.02314,-0.115717 0.0011,-0.247632 0.02645,-0.130644 0.103949,-0.263679 0.0775,-0.133036 0.1781,-0.220483 0.102781,-0.08618 0.214856,-0.123124 0.115527,-0.03786 0.233446,-0.02466 0.119189,0.01101 0.232596,0.07708 0.113408,0.06607 0.181777,0.164315 0.06964,0.09607 0.09151,0.213967 0.02532,0.116987 -0.0011,0.247631 -0.02427,0.131915 -0.101768,0.26495 z m -0.150483,-0.08766 q 0.123238,-0.211549 0.09751,-0.393033 -0.02445,-0.183665 -0.192383,-0.281493 -0.16793,-0.09783 -0.33976,-0.02851 -0.170558,0.06714 -0.293796,0.278688 -0.123237,0.211549 -0.09751,0.393033 0.02572,0.181484 0.193654,0.279312 0.16793,0.09783 0.338489,0.03069 0.170559,-0.06714 0.293796,-0.278688 z"
       id="path25854" />
    <path
       d="m 23.521064,13.075695 q 0.120796,0.07339 0.22204,0.08174 0.104713,0.0075 0.162378,-0.0874 0.02752,-0.0453 0.03208,-0.08683 0.0067,-0.04022 -0.0099,-0.08576 -0.01663,-0.04554 -0.05614,-0.102035 -0.03735,-0.05518 -0.09535,-0.134718 -0.04683,-0.06389 -0.08718,-0.123851 -0.03905,-0.06212 -0.06122,-0.122841 -0.02086,-0.06288 -0.0166,-0.128221 0.0043,-0.06534 0.04751,-0.136523 0.08257,-0.135895 0.23506,-0.158423 0.154651,-0.02122 0.333688,0.08756 0.114324,0.06946 0.175869,0.133433 0.0637,0.06528 0.08473,0.09873 l -0.108369,0.105451 q -0.01802,-0.02867 -0.06747,-0.08825 -0.04729,-0.05827 -0.165931,-0.130348 -0.04745,-0.02883 -0.09715,-0.04426 -0.04623,-0.01627 -0.09169,-0.01436 -0.04415,-2.45e-4 -0.08322,0.02032 -0.03776,0.0184 -0.06528,0.0637 -0.02752,0.0453 -0.02992,0.08814 -0.0024,0.04284 0.01423,0.08838 0.0201,0.0447 0.05445,0.0951 0.03651,0.05171 0.08334,0.115606 0.04898,0.0652 0.09019,0.128629 0.04467,0.06258 0.06638,0.12893 0.02302,0.06419 0.0183,0.135156 -0.0034,0.06881 -0.0519,0.148618 -0.09174,0.150995 -0.253245,0.159189 -0.159348,0.0095 -0.355641,-0.109757 -0.14668,-0.08912 -0.208608,-0.162185 -0.06324,-0.07091 -0.08126,-0.09958 l 0.113993,-0.104987 q 0.0038,0.0082 0.01887,0.03214 0.01633,0.02173 0.04513,0.05696 0.03012,0.03306 0.07449,0.07184 0.04653,0.04008 0.113396,0.08071 z"
       id="path25856" />
    <path
       d="m 24.292375,13.687314 -0.139163,-0.08689 0.691083,-1.106876 0.139162,0.08689 z m 0.931724,-1.420816 q -0.03074,0.04924 -0.07943,0.0605 -0.04735,0.0091 -0.09017,-0.01762 -0.04282,-0.02674 -0.05541,-0.07328 -0.01126,-0.04869 0.01948,-0.09793 0.03074,-0.04924 0.07809,-0.05836 0.04869,-0.01126 0.09151,0.01547 0.04282,0.02673 0.05408,0.07542 0.0126,0.04655 -0.01815,0.09579 z"
       id="path25858" />
    <path
       d="m 25.343306,12.858964 q 0.07245,0.02271 0.190066,0.06854 0.117611,0.04583 0.268203,0.142966 0.125141,0.08072 0.184602,0.170135 0.06158,0.09078 0.06658,0.190123 0.0085,0.09859 -0.0305,0.205593 -0.03899,0.107006 -0.1115,0.21942 l -0.395391,0.612975 -0.137867,-0.08893 0.366661,-0.568434 q 0.07525,-0.116656 0.110269,-0.208199 0.03714,-0.09018 0.0318,-0.165707 -0.0032,-0.07416 -0.05105,-0.135049 -0.04434,-0.06164 -0.135543,-0.120469 -0.09757,-0.06293 -0.176522,-0.09885 -0.07683,-0.03454 -0.103517,-0.03974 l -0.621135,0.962943 -0.137866,-0.08893 z"
       id="path25860" />
    <path
       d="m 26.654755,15.049961 q -0.01961,0.002 -0.0546,-3.15e-4 -0.03358,-0.0044 -0.08112,-0.01517 -0.04545,-0.0094 -0.100625,-0.03138 -0.05167,-0.0227 -0.110248,-0.06224 -0.09414,-0.06355 -0.162232,-0.152145 -0.06809,-0.0886 -0.09267,-0.196545 -0.02249,-0.106536 0.0041,-0.23169 0.02804,-0.127246 0.124061,-0.2695 0.07767,-0.115059 0.179603,-0.189375 0.101934,-0.07432 0.214798,-0.101668 0.116369,-0.02803 0.237339,-0.0042 0.124473,0.02312 0.243716,0.103611 0.150623,0.101674 0.226456,0.183316 0.07934,0.08096 0.125204,0.13933 l -0.666532,0.987414 q -0.163809,0.24267 -0.358523,0.260448 -0.196125,0.01987 -0.449255,-0.150999 -0.104599,-0.07061 -0.179073,-0.145241 -0.07379,-0.07113 -0.12034,-0.133002 l 0.110512,-0.105069 q 0.03467,0.0569 0.109148,0.131537 0.07657,0.07605 0.164429,0.135356 0.192462,0.129917 0.329071,0.112504 0.137288,-0.01391 0.258732,-0.193819 z m 0.554293,-0.825652 q -0.0285,-0.03447 -0.07934,-0.08096 -0.04942,-0.04859 -0.154021,-0.119195 -0.08786,-0.05931 -0.178081,-0.07453 -0.08671,-0.0159 -0.172957,0.0081 -0.08483,0.02191 -0.162184,0.08237 -0.07594,0.05837 -0.138075,0.150413 -0.07202,0.106691 -0.09498,0.203864 -0.02155,0.09508 -0.008,0.174264 0.01564,0.0806 0.06077,0.144559 0.04655,0.06187 0.109306,0.104236 0.09205,0.06213 0.185716,0.08578 0.09576,0.02505 0.161607,0.01773 z"
       id="path25862" />
    <path
       d="m 27.373902,14.933398 q 0.09892,-0.140256 0.210848,-0.215745 0.115444,-0.0761 0.228845,-0.101128 0.115464,-0.02358 0.221243,0.0016 0.109296,0.02458 0.197988,0.08713 0.195945,0.1382 0.221256,0.347546 0.02737,0.2108 -0.160287,0.476874 -0.01164,0.0165 -0.02534,0.03155 -0.01164,0.0165 -0.02388,0.02948 l -0.748719,-0.52807 q -0.132013,0.20031 -0.11545,0.36951 0.01656,0.169201 0.21457,0.308856 0.109317,0.0771 0.187804,0.101572 0.07849,0.02447 0.117547,0.0304 l -0.05671,0.132962 q -0.04051,-0.0039 -0.136957,-0.03791 -0.09438,-0.03259 -0.201635,-0.108238 -0.140256,-0.09892 -0.210165,-0.210002 -0.06991,-0.111079 -0.08148,-0.230429 -0.01157,-0.11935 0.03084,-0.240783 0.04386,-0.123495 0.129691,-0.245188 z m 0.816613,0.449323 q 0.113709,-0.169979 0.104919,-0.315166 -0.0088,-0.145187 -0.144921,-0.241199 -0.07219,-0.05092 -0.150309,-0.06277 -0.07606,-0.0104 -0.154284,0.0086 -0.07471,0.01835 -0.144559,0.06483 -0.06778,0.04794 -0.121371,0.115156 z"
       id="path25864" />
    <path
       d="m 29.330938,15.501851 q 0.06525,0.0476 0.114899,0.09945 0.05169,0.05334 0.06668,0.0799 l -0.109816,0.09484 q -0.01036,-0.02006 -0.05538,-0.0654 -0.0415,-0.0459 -0.123055,-0.105406 -0.08564,-0.06248 -0.147576,-0.08893 -0.0599,-0.02496 -0.08216,-0.0287 l -0.673915,0.923649 -0.132533,-0.0967 0.733422,-1.005208 q 0.06734,0.01476 0.173417,0.05779 0.107567,0.04099 0.236021,0.134713 z"
       id="path25866" />
    <path
       d="m 29.11027,16.859615 q -0.03471,0.04653 -0.0892,0.05627 -0.05247,0.01124 -0.105072,-0.02799 -0.0526,-0.03924 -0.0588,-0.09424 -0.0042,-0.0535 0.03053,-0.10003 0.03471,-0.04653 0.08718,-0.05778 0.05449,-0.0097 0.107095,0.0295 0.0526,0.03924 0.05678,0.09273 0.0062,0.05501 -0.02851,0.10154 z"
       id="path25868" />
    <path
       d="m 30.124841,16.180952 q 0.07033,0.02863 0.183739,0.08404 0.113413,0.05541 0.255446,0.164682 0.118027,0.0908 0.169881,0.184835 0.05386,0.09557 0.05062,0.194983 3e-4,0.09895 -0.04741,0.202362 -0.04771,0.103411 -0.129283,0.209435 l -0.444786,0.578133 -0.13003,-0.100038 0.412466,-0.536124 q 0.08465,-0.110025 0.127128,-0.198355 0.04448,-0.08679 0.04541,-0.162505 0.0029,-0.07418 -0.03969,-0.138812 -0.03908,-0.0651 -0.125103,-0.131278 -0.09202,-0.0708 -0.167732,-0.113122 -0.07371,-0.04079 -0.09987,-0.04818 l -0.69873,0.908209 -0.13003,-0.100038 z"
       id="path25870" />
    <path
       d="m 30.840334,17.499796 q 0.107412,-0.133865 0.223795,-0.202283 0.119931,-0.06881 0.234664,-0.08677 0.116702,-0.01639 0.220719,0.0153 0.107566,0.0313 0.192217,0.09922 0.187017,0.150061 0.199325,0.360572 0.01428,0.21209 -0.189491,0.466041 -0.01264,0.01575 -0.02724,0.02992 -0.01264,0.01575 -0.02566,0.02795 l -0.714605,-0.573391 q -0.144156,0.191756 -0.138096,0.361657 0.0061,0.169901 0.195046,0.321542 0.104337,0.08372 0.181159,0.112999 0.07682,0.02928 0.115441,0.03761 l -0.06483,0.129198 q -0.0402,-0.0064 -0.134348,-0.04631 -0.09218,-0.03837 -0.194551,-0.120508 -0.133865,-0.107413 -0.196767,-0.222605 -0.0629,-0.115193 -0.06706,-0.23503 -0.0042,-0.119837 0.04568,-0.238413 0.05142,-0.120545 0.144615,-0.236693 z m 0.787242,0.498997 q 0.12401,-0.162617 0.124222,-0.308069 2.11e-4,-0.145453 -0.129717,-0.249706 -0.0689,-0.05529 -0.146137,-0.07195 -0.07527,-0.01509 -0.154517,-0.001 -0.0757,0.01369 -0.148294,0.05576 -0.07062,0.04365 -0.128265,0.107425 z"
       id="path25872" />
    <path
       d="m 32.519971,18.023221 0.399911,0.332281 -0.08872,0.106772 -0.399911,-0.332281 -0.443579,0.533862 q -0.07097,0.08542 -0.102548,0.151066 -0.02802,0.06532 -0.02504,0.117022 0.003,0.0517 0.03374,0.09367 0.03076,0.04197 0.07735,0.08068 0.07959,0.06613 0.142644,0.08899 0.06466,0.02091 0.104746,0.02796 l -0.05604,0.130639 q -0.0417,-0.0051 -0.128998,-0.03827 -0.08569,-0.0351 -0.165283,-0.101235 -0.09318,-0.07742 -0.13789,-0.15395 -0.04115,-0.07685 -0.03965,-0.157646 0.0051,-0.08112 0.05082,-0.167796 0.04576,-0.08667 0.129641,-0.187623 l 0.767795,-0.924066 0.145541,0.08155 z"
       id="path25874" />
  </g>
</svg>
